HIERARCHY
ROOT Hips
{
  OFFSET 5.80788e-005 67.184 3.4734
  CHANNELS 6 Xposition Yposition Zposition Zrotation Xrotation Yrotation
  JOINT Chest
  {
    OFFSET 0 8.7983 -4.7612
    CHANNELS 3 Zrotation Xrotation Yrotation
    JOINT Chest2
    {
      OFFSET 0 8.0291 0.4195
      CHANNELS 3 Zrotation Xrotation Yrotation
      JOINT Chest3
      {
        OFFSET 0 9.9351 -2.2114
        CHANNELS 3 Zrotation Xrotation Yrotation
        JOINT Neck
        {
          OFFSET 0 22.3885 -0.4656
          CHANNELS 3 Zrotation Xrotation Yrotation
          JOINT Head
          {
            OFFSET -0.0001 12.643 3.4389
            CHANNELS 3 Zrotation Xrotation Yrotation
            End Site
            {
              OFFSET 0.0001 17.6655 0.5274
            }
          }
        }
        JOINT LeftCollar
        {
          OFFSET 2.2603 21.606 7.4023
          CHANNELS 3 Zrotation Xrotation Yrotation
          JOINT LeftShoulder
          {
            OFFSET 13.5163 -1.1332 -5.0146
            CHANNELS 3 Zrotation Xrotation Yrotation
            JOINT LeftElbow
            {
              OFFSET -0.0995 -28.05 -0.2431
              CHANNELS 3 Zrotation Xrotation Yrotation
              JOINT LeftWrist
              {
                OFFSET 0.0679 -23.3996 -0.1402
                CHANNELS 3 Zrotation Xrotation Yrotation
                JOINT LeftFinger1
                {
                  OFFSET 0.7932 -9.069 2.5189
                  CHANNELS 3 Zrotation Xrotation Yrotation
                  JOINT LeftFinger11
                  {
                    OFFSET -0.8272 -3.3923 0.5977
                    CHANNELS 3 Zrotation Xrotation Yrotation
                    JOINT LeftFinger12
                    {
                      OFFSET -0.5649 -2.3158 0.4082
                      CHANNELS 3 Zrotation Xrotation Yrotation
                      End Site
                      {
                        OFFSET -0.4919 -1.6479 0.2673
                      }
                    }
                  }
                }
                JOINT LeftFinger2
                {
                  OFFSET 0.9159 -9.2044 0.2193
                  CHANNELS 3 Zrotation Xrotation Yrotation
                  JOINT LeftFinger21
                  {
                    OFFSET 0.0117 -4.1944 -0.0248
                    CHANNELS 3 Zrotation Xrotation Yrotation
                    JOINT LeftFinger22
                    {
                      OFFSET 0.0071 -2.3249 -0.0142
                      CHANNELS 3 Zrotation Xrotation Yrotation
                      End Site
                      {
                        OFFSET -0.1475 -2.0882 0.0028
                      }
                    }
                  }
                }
                JOINT LeftFinger3
                {
                  OFFSET 0.6113 -8.7231 -2.0637
                  CHANNELS 3 Zrotation Xrotation Yrotation
                  JOINT LeftFinger31
                  {
                    OFFSET -0.1927 -3.8059 -0.2383
                    CHANNELS 3 Zrotation Xrotation Yrotation
                    JOINT LeftFinger32
                    {
                      OFFSET -0.1091 -2.1688 -0.1362
                      CHANNELS 3 Zrotation Xrotation Yrotation
                      End Site
                      {
                        OFFSET -0.2358 -1.9176 -0.0906
                      }
                    }
                  }
                }
                JOINT LeftFinger4
                {
                  OFFSET -0.6151 -8.0947 -3.5641
                  CHANNELS 3 Zrotation Xrotation Yrotation
                  JOINT LeftFinger41
                  {
                    OFFSET -0.4882 -2.341 -0.6462
                    CHANNELS 3 Zrotation Xrotation Yrotation
                    JOINT LeftFinger42
                    {
                      OFFSET -0.3575 -1.7167 -0.4742
                      CHANNELS 3 Zrotation Xrotation Yrotation
                      End Site
                      {
                        OFFSET -0.4187 -1.5237 -0.3496
                      }
                    }
                  }
                }
                JOINT LeftFinger0
                {
                  OFFSET -1.42 -1.8761 1.4223
                  CHANNELS 3 Zrotation Xrotation Yrotation
                  JOINT LeftFinger01
                  {
                    OFFSET -1.1471 -3.4929 2.6334
                    CHANNELS 3 Zrotation Xrotation Yrotation
                    JOINT LeftFinger02
                    {
                      OFFSET -0.823 -2.3 1.6571
                      CHANNELS 3 Zrotation Xrotation Yrotation
                      End Site
                      {
                        OFFSET -0.5822 -1.6914 1.1582
                      }
                    }
                  }
                }
              }
            }
          }
        }
        JOINT RightCollar
        {
          OFFSET -2.2603 21.606 7.4023
          CHANNELS 3 Zrotation Xrotation Yrotation
          JOINT RightShoulder
          {
            OFFSET -13.5187 -1.1334 -5.0155
            CHANNELS 3 Zrotation Xrotation Yrotation
            JOINT RightElbow
            {
              OFFSET 0.0994 -28.0499 -0.2431
              CHANNELS 3 Zrotation Xrotation Yrotation
              JOINT RightWrist
              {
                OFFSET -0.0679 -23.3996 -0.1402
                CHANNELS 3 Zrotation Xrotation Yrotation
                JOINT RightFinger1
                {
                  OFFSET -0.7932 -9.0691 2.5189
                  CHANNELS 3 Zrotation Xrotation Yrotation
                  JOINT RightFinger11
                  {
                    OFFSET 0.8272 -3.3923 0.5977
                    CHANNELS 3 Zrotation Xrotation Yrotation
                    JOINT RightFinger12
                    {
                      OFFSET 0.565 -2.3158 0.4082
                      CHANNELS 3 Zrotation Xrotation Yrotation
                      End Site
                      {
                        OFFSET 0.4919 -1.6479 0.2673
                      }
                    }
                  }
                }
                JOINT RightFinger2
                {
                  OFFSET -0.916 -9.2044 0.2193
                  CHANNELS 3 Zrotation Xrotation Yrotation
                  JOINT RightFinger21
                  {
                    OFFSET -0.0117 -4.1944 -0.0248
                    CHANNELS 3 Zrotation Xrotation Yrotation
                    JOINT RightFinger22
                    {
                      OFFSET -0.0071 -2.3249 -0.0142
                      CHANNELS 3 Zrotation Xrotation Yrotation
                      End Site
                      {
                        OFFSET 0.1475 -2.0882 0.0028
                      }
                    }
                  }
                }
                JOINT RightFinger3
                {
                  OFFSET -0.6113 -8.7231 -2.0637
                  CHANNELS 3 Zrotation Xrotation Yrotation
                  JOINT RightFinger31
                  {
                    OFFSET 0.1927 -3.8059 -0.2383
                    CHANNELS 3 Zrotation Xrotation Yrotation
                    JOINT RightFinger32
                    {
                      OFFSET 0.1091 -2.1688 -0.1362
                      CHANNELS 3 Zrotation Xrotation Yrotation
                      End Site
                      {
                        OFFSET 0.2358 -1.9176 -0.0906
                      }
                    }
                  }
                }
                JOINT RightFinger4
                {
                  OFFSET 0.6151 -8.0947 -3.564
                  CHANNELS 3 Zrotation Xrotation Yrotation
                  JOINT RightFinger41
                  {
                    OFFSET 0.4882 -2.341 -0.6462
                    CHANNELS 3 Zrotation Xrotation Yrotation
                    JOINT RightFinger42
                    {
                      OFFSET 0.3574 -1.7166 -0.4742
                      CHANNELS 3 Zrotation Xrotation Yrotation
                      End Site
                      {
                        OFFSET 0.4187 -1.5237 -0.3496
                      }
                    }
                  }
                }
                JOINT RightFinger0
                {
                  OFFSET 1.4199 -1.8761 1.4221
                  CHANNELS 3 Zrotation Xrotation Yrotation
                  JOINT RightFinger01
                  {
                    OFFSET 1.1472 -3.4929 2.6336
                    CHANNELS 3 Zrotation Xrotation Yrotation
                    JOINT RightFinger02
                    {
                      OFFSET 0.8229 -2.3 1.6571
                      CHANNELS 3 Zrotation Xrotation Yrotation
                      End Site
                      {
                        OFFSET 0.5822 -1.6914 1.1582
                      }
                    }
                  }
                }
              }
            }
          }
        }
      }
    }
  }
  JOINT RightHip
  {
    OFFSET -9.412 3.9771 -0.7758
    CHANNELS 3 Zrotation Xrotation Yrotation
    JOINT RightKnee
    {
      OFFSET -0.7531 -40.938 0
      CHANNELS 3 Zrotation Xrotation Yrotation
      JOINT RightAnkle
      {
        OFFSET 0 -40.1986 0
        CHANNELS 3 Zrotation Xrotation Yrotation
        JOINT RightToe
        {
          OFFSET 0 -4.4182 9.239
          CHANNELS 3 Zrotation Xrotation Yrotation
          End Site
          {
            OFFSET 0 0 6.1981
          }
        }
      }
    }
  }
  JOINT LeftHip
  {
    OFFSET 9.4119 3.9773 -0.7758
    CHANNELS 3 Zrotation Xrotation Yrotation
    JOINT LeftKnee
    {
      OFFSET 0.7532 -40.9383 0
      CHANNELS 3 Zrotation Xrotation Yrotation
      JOINT LeftAnkle
      {
        OFFSET 0 -40.1986 0
        CHANNELS 3 Zrotation Xrotation Yrotation
        JOINT LeftToe
        {
          OFFSET 0 -4.4182 9.239
          CHANNELS 3 Zrotation Xrotation Yrotation
          End Site
          {
            OFFSET 0 0 6.1981
          }
        }
      }
    }
  }
}
MOTION
Frames:	7
Frame Time:	0.0333333
5.80788e-005 67.184 3.4734 0 0 -0 0 0 -0 0 0 -0 0 0 -0 0 0 -0 0 0 -0 0 0 -12.5014 88.1196 14.2451 10.6914 -0.00160068 -0.00239207 0.000740045 -8.4365e-005 7.00714e-005 -9.52055e-007 9.93923e-017 -1.98785e-016 -1.59028e-015 9.93923e-017 -5.96354e-016 -1.59028e-015 -9.93923e-017 -5.96354e-016 -1.59028e-015 9.93923e-017 -1.98785e-016 -1.59028e-015 -0.0128176 0.00232552 8.52707e-005 9.93923e-017 5.96354e-016 -0 9.93923e-017 -1.98785e-016 -1.59028e-015 -0.0160551 0.00299681 0.000857156 -2.48481e-016 0 3.18055e-015 9.93923e-017 -1.98785e-016 -1.59028e-015 -0.0125865 0.0031206 0.00282719 0 1.98785e-016 -0 9.93923e-017 -1.98785e-016 -1.59028e-015 9.93923e-017 -5.96354e-016 -1.59028e-015 -9.93923e-017 -5.96354e-016 -1.59028e-015 -0.865644 0.16582 7.03859 -88.0329 10.2057 -10.5567 0.0015593 -0.00248883 -0.000788628 7.87605e-005 4.10553e-005 1.24965e-005 -3.97569e-016 -7.95139e-016 3.18055e-015 -1.98785e-016 -3.97569e-016 3.18055e-015 -1.98785e-016 0 3.18055e-015 -3.97569e-016 -7.95139e-016 3.18055e-015 0.0129473 0.00231697 -8.70038e-005 9.93923e-017 -7.95139e-016 1.59028e-015 -3.97569e-016 -7.95139e-016 3.18055e-015 0.0163314 0.00303369 -0.000872333 3.97569e-016 7.95139e-016 -3.18055e-015 -3.97569e-016 -7.95139e-016 3.18055e-015 0.0145763 0.00367772 -0.00326275 9.93923e-017 -3.97569e-016 -0 -3.97569e-016 -7.95139e-016 3.18055e-015 -1.98785e-016 -3.97569e-016 3.18055e-015 -1.98785e-016 0 3.18055e-015 3.42485 1.36937 -0.0640303 0.000136572 0.69354 0.00145564 -3.42573 -2.06297 -0.0607933 -3.19502e-024 0 -1.48106e-024 -3.42498 1.36123 0.0639712 -6.769e-005 0.712612 -0.0012277 3.42582 -2.07388 0.0612819 2.55305e-023 0 -2.31416e-026 
-35.0554 -5.81852 30.7349 -7.01671e-015 7.01671e-015 -180 -0.14628 -0.0734237 -4.35633 -0.297716 -0.135524 -8.71285 -0.297716 -0.135524 -8.71286 -15.4414 -13.5144 -32.6943 0.270928 -0.0720457 -0.151946 -27.1949 -0.650959 -14.3698 62.6946 -12.1573 8.32355 -91.7925 -49.1479 -57.9697 -33.5101 6.02304 0.746249 6.75563e-006 -4.08672e-005 -6.08818e-006 -1.59028e-015 1.19271e-015 7.95139e-016 1.33307e-006 1.39521e-005 -2.96241e-006 6.75563e-006 -4.08672e-005 -6.08818e-006 -0.0128107 0.0022994 8.75102e-005 -5.84833e-006 1.51762e-005 -4.64311e-006 6.75563e-006 -4.08672e-005 -6.08818e-006 -0.016057 0.00299923 0.000865509 8.24828e-006 -3.50536e-006 2.89617e-006 6.75563e-006 -4.08672e-005 -6.08818e-006 -0.012597 0.00313284 0.00282974 -6.56308e-006 1.91318e-005 -1.31212e-006 6.75563e-006 -4.08672e-005 -6.08818e-006 -1.59028e-015 1.19271e-015 7.95139e-016 1.33307e-006 1.39521e-005 -2.96241e-006 7.71188 -0.0991137 7.44153 -58.6683 -34.7515 -47.0764 30.9964 -8.62355 5.5579 6.87372 1.2516 0.312584 -9.54166e-015 0 1.59028e-015 1.53509e-006 8.50738e-007 -3.05045e-006 -3.18055e-015 -3.18055e-015 -0 -9.54166e-015 0 1.59028e-015 0.0129659 0.00232032 -8.55627e-005 3.18055e-015 6.36111e-015 -0 -9.54166e-015 0 1.59028e-015 0.0163425 0.00302979 -0.000879192 6.36111e-015 3.18055e-015 -0 -9.54166e-015 0 1.59028e-015 0.0145756 0.00369002 -0.00326815 0 0 -0 -9.54166e-015 0 1.59028e-015 1.53509e-006 8.50738e-007 -3.05045e-006 -3.18055e-015 -3.18055e-015 -0 -21.839 -85.6581 -78.5429 126.921 54.7095 -122.104 -7.70984 7.43033 -1.82448 -2.22973e-006 -1.78467e-006 -2.98801e-006 -151.639 -55.0125 -154.806 179.466 87.222 178.117 9.03835 7.57631 2.713 1.53255e-006 3.7824e-007 -6.05187e-007 
-35.0554 -5.81852 30.7349 -7.01671e-015 7.01671e-015 -180 -0.14628 -0.0734237 -4.35633 -0.297716 -0.135524 -8.71285 -0.297716 -0.135524 -8.71286 -15.4414 -13.5144 -32.6943 0.547376 -0.10562 -0.281797 -27.1949 -0.650959 -14.3698 62.6946 -12.1573 8.32354 -91.4589 -49.5269 -57.9831 -33.51 6.02302 0.746244 1.59028e-015 3.97569e-016 2.38542e-015 3.18055e-015 2.5842e-015 1.59028e-015 4.77083e-015 2.78299e-015 -0 1.59028e-015 3.97569e-016 2.38542e-015 -0.0128198 0.00227675 7.82567e-005 -3.18055e-015 -3.97569e-015 -7.95139e-016 1.59028e-015 3.97569e-016 2.38542e-015 -0.0160403 0.00297406 0.000853418 1.59028e-015 4.96962e-015 -7.95139e-016 1.59028e-015 3.97569e-016 2.38542e-015 -0.0125812 0.00306687 0.00282397 -1.59028e-015 4.77083e-015 7.95139e-016 1.59028e-015 3.97569e-016 2.38542e-015 3.18055e-015 2.5842e-015 1.59028e-015 4.77083e-015 2.78299e-015 -0 7.71188 -0.0991137 7.44153 -58.4655 -34.6326 -46.9594 31.0909 -8.94742 5.22465 6.87372 1.25158 0.312603 -6.36111e-015 3.18055e-015 -1.59028e-015 -3.18055e-015 -6.36111e-015 -1.59028e-015 -3.18055e-015 -3.18055e-015 -3.18055e-015 -6.36111e-015 3.18055e-015 -1.59028e-015 0.0129349 0.00231829 -8.66633e-005 -3.18055e-015 0 -0 -6.36111e-015 3.18055e-015 -1.59028e-015 0.0163292 0.00304667 -0.000864219 -8.82781e-032 -3.18055e-015 -1.59028e-015 -6.36111e-015 3.18055e-015 -1.59028e-015 0.0145741 0.00368299 -0.00325532 -3.18055e-015 3.18055e-015 -1.59028e-015 -6.36111e-015 3.18055e-015 -1.59028e-015 -3.18055e-015 -6.36111e-015 -1.59028e-015 -3.18055e-015 -3.18055e-015 -3.18055e-015 -21.839 -85.6583 -78.543 126.921 54.7096 -122.104 -7.70981 7.43037 -1.82449 -1.15558e-006 -1.47691e-006 2.27961e-006 -151.639 -55.0125 -154.806 179.466 87.222 178.117 9.03835 7.57634 2.71299 3.43476e-007 1.62742e-006 7.69898e-007 
-35.0554 -5.81852 30.7349 -7.01671e-015 7.01671e-015 -180 -0.14628 -0.0734237 -4.35633 -0.297716 -0.135524 -8.71285 -0.297716 -0.135524 -8.71286 -15.4414 -13.5144 -32.6943 0.823944 -0.139841 -0.411559 -27.1949 -0.650959 -14.3698 62.6946 -12.1573 8.32355 -91.1223 -49.9068 -57.9931 -33.51 6.02304 0.746192 -3.18055e-015 6.55989e-015 1.59028e-015 5.81522e-006 -7.05591e-005 -1.11655e-006 -1.11319e-014 3.37934e-015 -7.95139e-015 -3.18055e-015 6.55989e-015 1.59028e-015 -0.0128169 0.00229085 7.80961e-005 3.62751e-007 -9.22249e-006 -1.66316e-006 -3.18055e-015 6.55989e-015 1.59028e-015 -0.0160497 0.00294766 0.000847024 5.79325e-032 4.17448e-015 -7.95139e-016 -3.18055e-015 6.55989e-015 1.59028e-015 -0.0125652 0.00305966 0.0028082 6.36111e-015 3.77691e-015 7.95139e-016 -3.18055e-015 6.55989e-015 1.59028e-015 5.81522e-006 -7.05591e-005 -1.11655e-006 -1.11319e-014 3.37934e-015 -7.95139e-015 7.71188 -0.0991137 7.44153 -58.2638 -34.5118 -46.8432 31.1851 -9.27302 4.89141 6.87374 1.25162 0.312613 -2.84197e-006 -5.65061e-006 -5.20332e-006 -6.36111e-015 -6.36111e-015 -1.59028e-015 -6.36111e-015 -6.36111e-015 3.18055e-015 -2.84197e-006 -5.65061e-006 -5.20332e-006 0.0129363 0.00232012 -8.23572e-005 -3.18055e-015 0 -1.59028e-015 -2.84197e-006 -5.65061e-006 -5.20332e-006 0.0163273 0.00304316 -0.000871767 1.66798e-006 1.44263e-006 2.74464e-006 -2.84197e-006 -5.65061e-006 -5.20332e-006 0.0145853 0.00367778 -0.00326075 3.18055e-015 0 -0 -2.84197e-006 -5.65061e-006 -5.20332e-006 -6.36111e-015 -6.36111e-015 -1.59028e-015 -6.36111e-015 -6.36111e-015 3.18055e-015 -21.839 -85.6583 -78.543 126.921 54.7096 -122.104 -7.70981 7.43037 -1.82449 -1.15558e-006 -1.47691e-006 2.27961e-006 -151.639 -55.0125 -154.806 179.466 87.222 178.117 9.03835 7.57634 2.71299 3.43476e-007 1.62742e-006 7.69898e-007 
-35.0554 -5.81852 30.7349 -7.01671e-015 7.01671e-015 -180 -0.14628 -0.0734237 -4.35633 -0.297716 -0.135524 -8.71285 -0.297716 -0.135524 -8.71286 -15.4414 -13.5144 -32.6943 1.10062 -0.174709 -0.541264 -27.1949 -0.650959 -14.3698 62.6946 -12.1573 8.32355 -90.7824 -50.2874 -57.9997 -33.5099 6.02296 0.746149 -4.77083e-015 -1.39149e-015 -1.59028e-015 -4.77083e-015 -1.98785e-016 -7.95139e-016 -1.59028e-015 5.96354e-016 -0 -4.77083e-015 -1.39149e-015 -1.59028e-015 -0.0128304 0.00236746 9.71502e-005 1.46211e-031 1.05356e-014 -7.95139e-016 -4.77083e-015 -1.39149e-015 -1.59028e-015 -0.0160393 0.00300684 0.000854519 1.59028e-015 -3.97569e-016 -0 -4.77083e-015 -1.39149e-015 -1.59028e-015 -0.012574 0.00313522 0.00282855 -2.22089e-006 2.9508e-005 1.37839e-007 -4.77083e-015 -1.39149e-015 -1.59028e-015 -4.77083e-015 -1.98785e-016 -7.95139e-016 -1.59028e-015 5.96354e-016 -0 7.71188 -0.0991137 7.44153 -58.0633 -34.3892 -46.728 31.2791 -9.60018 4.55809 6.87372 1.25161 0.312601 0 0 -1.59028e-015 -0 -3.18055e-015 -0 -6.36111e-015 -6.36111e-015 -3.18055e-015 0 0 -1.59028e-015 0.0129684 0.00231355 -8.52974e-005 6.36111e-015 3.18055e-015 -1.59028e-015 0 0 -1.59028e-015 0.0163364 0.00303175 -0.000873522 3.18055e-015 0 1.59028e-015 0 0 -1.59028e-015 0.0145937 0.003686 -0.00326167 -6.36111e-015 -9.54166e-015 3.18055e-015 0 0 -1.59028e-015 -0 -3.18055e-015 -0 -6.36111e-015 -6.36111e-015 -3.18055e-015 -21.839 -85.6583 -78.543 126.921 54.7096 -122.104 -7.70981 7.43037 -1.82449 -1.15558e-006 -1.47691e-006 2.27961e-006 -151.639 -55.0125 -154.806 179.466 87.222 178.117 9.03835 7.57634 2.71299 3.43476e-007 1.62742e-006 7.69898e-007 
-35.0554 -5.81852 30.7349 -7.01671e-015 7.01671e-015 -180 -0.14628 -0.0734237 -4.35633 -0.297716 -0.135524 -8.71285 -0.297716 -0.135524 -8.71286 -15.4414 -13.5144 -32.6943 1.37741 -0.210229 -0.670864 -27.1949 -0.650959 -14.3698 62.6946 -12.1573 8.32355 -90.4391 -50.6688 -58.0029 -33.5099 6.02297 0.746082 -3.18055e-015 7.35503e-015 -1.59028e-015 7.1726e-032 5.1684e-015 -7.95139e-016 2.20695e-032 1.59028e-015 -7.95139e-016 -3.18055e-015 7.35503e-015 -1.59028e-015 -0.0128152 0.00231031 8.65403e-005 2.3173e-031 5.56597e-015 -2.38542e-015 -3.18055e-015 7.35503e-015 -1.59028e-015 -0.0160434 0.00303816 0.000866603 -0 -1.39149e-015 -0 -3.18055e-015 7.35503e-015 -1.59028e-015 -0.0125951 0.00309329 0.00283341 -4.77083e-015 -9.93923e-016 -6.36111e-015 -3.18055e-015 7.35503e-015 -1.59028e-015 7.1726e-032 5.1684e-015 -7.95139e-016 2.20695e-032 1.59028e-015 -7.95139e-016 7.71188 -0.0991137 7.44153 -57.8607 -34.273 -46.612 31.3648 -9.92583 4.22289 6.87372 1.25162 0.312597 3.18055e-015 3.18055e-015 -1.59028e-015 6.36111e-015 -3.18055e-015 -3.18055e-015 3.18055e-015 -3.18055e-015 -1.59028e-015 3.18055e-015 3.18055e-015 -1.59028e-015 0.0129297 0.0023105 -8.2452e-005 8.82781e-032 -3.18055e-015 1.59028e-015 3.18055e-015 3.18055e-015 -1.59028e-015 0.0163478 0.0030411 -0.000873807 1.76556e-031 -3.18055e-015 3.18055e-015 3.18055e-015 3.18055e-015 -1.59028e-015 0.014586 0.00368679 -0.00326069 1.59028e-014 9.54166e-015 -2.8625e-014 3.18055e-015 3.18055e-015 -1.59028e-015 6.36111e-015 -3.18055e-015 -3.18055e-015 3.18055e-015 -3.18055e-015 -1.59028e-015 -21.839 -85.6583 -78.543 126.921 54.7096 -122.104 -7.70981 7.43037 -1.82449 -1.15558e-006 -1.47691e-006 2.27961e-006 -151.639 -55.0125 -154.806 179.466 87.222 178.117 9.03835 7.57634 2.71299 3.43476e-007 1.62742e-006 7.69898e-007 
-35.0554 -5.81852 30.7349 -7.01671e-015 7.01671e-015 -180 -0.14628 -0.0734237 -4.35633 -0.297716 -0.135524 -8.71285 -0.297716 -0.135524 -8.71286 -15.4414 -13.5144 -32.6943 1.6543 -0.246398 -0.800393 -27.1949 -0.650959 -14.3698 62.6946 -12.1573 8.32355 -90.0924 -51.0509 -58.0024 -33.5099 6.02298 0.746076 4.77083e-015 9.93923e-016 -0 1.59028e-015 1.39149e-015 7.95139e-016 1.59028e-015 -1.78906e-015 -0 4.77083e-015 9.93923e-016 -0 -0.0128157 0.00226949 8.96603e-005 -1.59028e-015 5.96354e-016 -3.18055e-015 4.77083e-015 9.93923e-016 -0 -0.0160435 0.00295532 0.000868378 -3.18055e-015 0 -2.38542e-015 4.77083e-015 9.93923e-016 -0 -0.0125863 0.00310461 0.00282999 1.59028e-015 -6.55989e-015 -1.59028e-015 4.77083e-015 9.93923e-016 -0 1.59028e-015 1.39149e-015 7.95139e-016 1.59028e-015 -1.78906e-015 -0 7.71188 -0.0991137 7.44153 -57.6592 -34.1546 -46.4971 31.4505 -10.2532 3.88769 6.87371 1.25158 0.3126 3.18055e-015 -3.18055e-015 -3.18055e-015 3.18055e-015 6.36111e-015 -1.59028e-015 3.18055e-015 -3.18055e-015 -3.18055e-015 3.18055e-015 -3.18055e-015 -3.18055e-015 0.0129521 0.0023136 -8.63739e-005 9.54166e-015 0 -2.22639e-014 3.18055e-015 -3.18055e-015 -3.18055e-015 0.0163338 0.00303112 -0.000869987 1.27222e-014 6.36111e-015 -0 3.18055e-015 -3.18055e-015 -3.18055e-015 0.0145829 0.00367504 -0.00325821 3.18055e-015 3.18055e-015 -0 3.18055e-015 -3.18055e-015 -3.18055e-015 3.18055e-015 6.36111e-015 -1.59028e-015 3.18055e-015 -3.18055e-015 -3.18055e-015 -21.839 -85.6583 -78.543 126.921 54.7096 -122.104 -7.70981 7.43037 -1.82449 -1.15558e-006 -1.47691e-006 2.27961e-006 -151.639 -55.0125 -154.806 179.466 87.222 178.117 9.03835 7.57634 2.71299 3.43476e-007 1.62742e-006 7.69898e-007 
